<?xml version="1.0" encoding="UTF-8" standalone="no"?>
<svg width="127.55652mm" height="100.00031mm" viewBox="0 0 127.55652 100.0003" version="1.1" id="summer_sports"
   xmlns:inkscape="http://www.inkscape.org/namespaces/inkscape"
   xmlns:sodipodi="http://sodipodi.sourceforge.net/DTD/sodipodi-0.dtd" xmlns="http://www.w3.org/2000/svg"
   xmlns:svg="http://www.w3.org/2000/svg">

   <g id="layer1" transform="translate(-121.00734,-18.912851)">
      <g id="athletics" transform="translate(26.067071,-49.512078)">
         <path
            d="m 144.31168,68.425082 c 1.653,0.288165 3.3535,0.42433 4.95583,0.892992 5.81082,1.706838 11.02948,4.464999 14.92131,9.246659 1.02916,1.263501 1.83033,2.783499 2.44149,4.306656 0.9405,2.346493 0.34517,4.54733 -1.26983,6.453658 -0.59533,0.702993 -1.45983,0.873998 -2.34966,0.940495 -2.86899,0.215337 -5.17116,-0.975324 -7.25165,-2.821498 -2.2135,-1.966494 -4.42066,-3.948822 -6.74816,-5.775991 -1.15266,-0.905655 -2.52383,-1.589654 -3.88233,-2.169156 -1.94433,-0.829667 -3.86649,-0.522496 -5.66515,0.573159 -1.4345,0.87717 -2.65683,1.988671 -3.648,3.350338 -2.49849,3.426325 -4.10716,7.276982 -5.37066,11.289141 -0.71566,2.270493 -1.41866,4.544158 -2.06783,6.833655 -0.24066,0.84866 -0.32299,1.74483 -0.43699,2.4035 -1.78283,-7.295987 -1.95067,-14.832649 0.10766,-22.299631 0.912,-3.312325 2.926,-6.102155 5.30416,-8.581654 1.919,-2.001334 4.17366,-3.489663 6.89699,-4.148324 0.95316,-0.231172 1.938,-0.332497 2.90699,-0.493999 0.38634,0 0.77267,0 1.15583,0 z"
            id="path2" />
         <path
            d="m 127.05021,156.28409 c 0.931,-0.46866 1.8335,-1.00699 2.79617,-1.39965 5.93749,-2.41933 11.59631,-5.41182 17.2488,-8.41066 2.166,-1.14949 4.36366,-2.24833 6.49482,-3.45799 1.45667,-0.8265 2.679,-1.96333 3.61,-3.37883 0.38,-0.5795 0.28816,-1.8715 -0.19634,-2.34016 -1.55799,-1.51049 -3.38832,-2.61566 -5.33582,-3.53083 -0.19633,-0.0918 -0.589,0.0475 -0.798,0.20267 -3.45166,2.57449 -6.77665,5.34532 -10.35815,7.72032 -4.61066,3.05583 -9.41765,5.81716 -14.15814,8.67349 -7.54616,4.54732 -15.09548,9.08514 -22.66696,13.5913 -2.27367,1.35216 -4.610662,2.603 -6.938158,3.86016 -0.493999,0.26917 -1.079832,0.37051 -1.808164,0.61117 14.341812,-14.53814 28.674122,-28.79129 42.803762,-43.36743 -0.94683,-0.84233 -1.73216,-1.54532 -2.52066,-2.242 -1.7385,-1.53583 -3.10333,-3.29332 -3.42316,-5.68731 -0.18367,-1.38383 -0.1045,-2.736 0.3895,-4.05333 0.77899,-2.08683 2.36866,-3.07167 4.50299,-3.29967 2.109,-0.228 4.00899,0.49717 5.95015,1.20334 5.40233,1.96649 9.89582,5.33582 14.12965,9.08514 2.88166,2.55234 5.68732,5.19966 8.40115,7.92933 1.46933,1.47882 2.7265,3.18249 3.96783,4.86716 0.64916,0.88033 1.13683,1.9 1.56433,2.91332 0.69033,1.63717 0.58583,3.23317 -0.26917,4.8545 -1.73216,3.28382 -4.33832,5.67466 -7.42265,7.61581 -3.0875,1.9475 -6.51699,3.078 -9.99399,4.05333 -3.84432,1.07984 -7.67598,2.23567 -11.57414,3.06534 -2.907,0.61749 -5.90899,0.83282 -8.87932,1.09566 -1.71633,0.152 -3.458,0.0443 -5.18699,0.0475 -0.0887,0 -0.17417,-0.0381 -0.26284,-0.057 -0.0222,-0.057 -0.0443,-0.11083 -0.0665,-0.16784 z"
            id="path4" />
         <path
            d="m 222.22105,91.174381 c 0.5415,3.435829 0.3135,6.767148 -0.93416,10.028809 -1.97916,5.16799 -4.38583,10.06365 -8.45499,13.96181 -3.17299,3.03683 -6.72915,5.48466 -11.00414,6.65316 -3.477,0.95 -6.75766,0.41166 -9.73115,-1.76383 -4.96533,-3.63533 -8.35049,-8.34099 -9.81032,-14.34814 -0.5415,-2.22617 -0.52567,-4.48399 0.5225,-6.564497 0.50666,-1.003833 1.28249,-1.912659 2.07733,-2.723321 0.94683,-0.962673 2.16599,-1.057667 3.42632,-0.601667 1.311,0.474993 2.4605,1.241323 3.12867,2.444658 0.96583,1.735335 1.77333,3.562487 2.59349,5.376997 0.63333,1.39965 1.07983,2.89433 1.786,4.25282 0.91833,1.767 2.32433,3.11917 4.13883,3.99633 1.14633,0.55416 2.31799,0.56049 3.49282,0.0538 2.68533,-1.15266 4.95266,-2.93549 7.23899,-4.71199 4.46182,-3.46432 7.69499,-7.856482 10.01616,-12.954805 0.38633,-0.845501 0.66182,-1.751168 0.90249,-2.653664 0.11406,-0.42433 0.23116,-0.601668 0.61433,-0.446496 z"
            id="path6" />
         <path
            d="m 185.35162,72.456246 c 5.97232,0.03483 10.80148,4.316159 11.21631,10.25364 0.22167,3.182504 -1.15583,5.943824 -3.50866,8.081324 -6.16549,5.601825 -16.66614,2.954492 -18.5883,-5.760156 -0.931,-4.227496 1.26666,-8.83182 5.29782,-11.076988 1.78917,-0.994329 3.69866,-1.507323 5.57966,-1.49782 z"
            id="path8" />
      </g>
      <g id="swimming" transform="translate(26.066787,-49.512228)">
         <path
            d="m 138.23428,89.638863 c 4.41321,5.987298 8.82726,11.989597 13.79988,17.530207 1.92517,2.13308 4.98891,3.35523 7.78987,2.34399 2.05934,-0.89465 2.98613,-3.65488 1.83471,-5.59591 -0.79261,-1.3006 -1.90287,-2.36586 -2.92913,-3.47784 -2.74051,-2.679203 -5.48316,-5.359281 -8.36085,-7.891453 -8.31499,-7.535239 -16.46366,-15.254369 -24.7868,-22.78188 -0.607,-0.558138 -1.31902,-0.980391 -2.05634,-1.340898 0.36694,1.415054 1.3439,2.552326 2.07864,3.788625 4.07541,5.904555 8.30299,11.701935 12.63002,17.425159 z"
            id="path2-8" />
         <path
            d="m 128.00184,139.42379 c 6.94494,-3.69989 13.85945,-7.89147 19.00654,-13.95592 1.10169,-1.39146 2.17552,-2.8884 2.67235,-4.6121 0.3631,-3.74446 -2.08293,-6.90465 -4.192,-9.73132 -4.55681,-5.74338 -9.56929,-11.898286 -16.86189,-14.118393 -1.85445,0.856932 -3.8452,2.016482 -4.52336,4.076273 -0.46255,1.88359 0.12086,3.88206 1.07596,5.52046 1.81801,3.18977 4.47578,5.81496 7.27674,8.14867 2.389,2.03576 5.25212,3.39424 7.74358,5.28897 -5.48489,5.50161 -10.4408,11.48632 -15.53387,17.34458 -2.0182,2.32685 -4.48136,4.23659 -6.3701,6.68047 l 0.65759,0.0394 c 3.11218,-1.35848 6.0203,-3.14647 9.04846,-4.68112 z"
            id="path4-8" />
         <path
            d="m 218.73026,158.73256 c -6.08631,0.10807 -10.06483,5.84411 -15.91024,6.85021 -3.99523,0.94607 -7.75127,-1.16085 -11.2201,-2.84254 -4.01539,-1.94318 -8.26141,-4.11399 -12.86236,-3.71446 -7.07399,0.43467 -12.55845,6.2432 -19.6993,6.37309 -5.18009,0.0844 -9.12432,-4.08269 -14.14881,-4.7137 -5.10423,-0.73174 -10.07084,1.20286 -14.73996,3.02216 0.0185,-5.32971 0.0113,-10.65899 0.01,-15.98826 0.1011,-0.95165 -0.50669,-2.09493 -1.59896,-1.96418 -10.1287,0.0193 -20.25784,0.005 -30.386559,0.01 v 2.57332 c 9.770769,0 19.541119,-8.4e-4 29.311879,0 0.0198,5.64951 -0.0331,11.299 0.0201,16.94678 -0.0836,0.72317 0.52555,1.17371 0.97995,1.62424 5.01248,-1.17885 9.69146,-4.0231 14.98902,-3.75217 5.41329,0.44966 9.6203,4.98375 15.15704,4.83157 4.75358,0.24649 9.0519,-2.11036 13.19673,-4.11226 3.47699,-1.6684 7.50566,-2.98143 11.34273,-1.79014 5.29927,1.5145 9.81534,5.10122 15.26722,6.19091 2.75894,0.39095 5.61992,0.005 8.17438,-1.11412 3.91037,-1.4815 6.95867,-4.72829 11.08295,-5.71294 0.53155,-0.15813 1.14112,-0.26965 1.47506,-0.77033 0.29406,-0.6996 -0.18347,-1.33319 -0.44025,-1.94661 z"
            id="path6-7" />
         <circle cx="174.03456" cy="109.74026" r="9.3772449" id="circle8" />
      </g>
      <g id="fencing" transform="translate(26.067075,-49.512092)">
         <path
            d="m 140.64901,102.59532 c -6.3688,-2.09845 -13.46834,-7.183724 -13.15817,-14.639879 0.41023,-5.858095 3.70205,-10.732494 6.75919,-15.450821 0.87368,-1.303387 1.75928,-2.591685 2.69453,-3.852181 a 0.58934402,0.58934402 0 0 1 1.03254,0.521037 c -1.62148,5.566203 -4.09959,11.337725 -4.30927,17.137442 -0.0794,3.001921 1.78153,4.618646 4.09324,5.968894 1.97691,1.175512 3.97886,2.107978 6.02766,3.275943 3.9896,2.365716 1.24422,8.431515 -3.13972,7.039565 z"
            id="path6-4" />
         <path
            d="m 185.32637,119.78637 v 4.46655 c -4.27909,-0.89474 -8.67853,-1.97772 -12.42269,-3.65004 -6.6051,-2.88636 -6.40495,-6.10234 -10.33814,-11.04028 -3.05117,-3.38594 -8.45098,0.36298 -6.29098,4.42366 0.59571,1.08179 1.21722,2.32044 2.10957,3.80611 4.80769,8.54589 15.8007,9.66302 24.56422,9.20076 0.76845,-0.0477 1.56907,-0.10762 2.37802,-0.17792 v 4.85733 a 5.942685,5.942685 0 0 0 0,-11.88537 z"
            id="path10" />
         <g id="g16" transform="matrix(0.39713209,0,0,0.39713209,99.148707,58.756304)">
            <path d="m 156,63.8 v 41.269 A 21.485,21.485 0 0 0 156,63.8 Z" id="path12" />
            <path d="m 150,62.938 a 21.5,21.5 0 0 0 0,43 z" id="path14" />
         </g>
         <path
            d="m 158.26421,134.73045 c -4.85018,-7.86321 -20.84508,-12.44691 -29.63757,-13.12243 a 5.7461042,5.7461042 0 0 0 -5.43793,2.6449 c -1.50474,1.81807 -2.98208,3.65361 -4.4876,5.48519 -6.75759,8.142 -13.67088,16.43015 -19.552403,25.34696 v 8.05541 c 3.119873,-2.79779 6.366433,-5.6905 9.533943,-8.41323 7.1035,-6.43354 15.50603,-12.39291 20.81688,-20.50989 3.58729,1.05915 7.72024,2.12863 10.87784,2.97293 3.25092,0.85741 6.55507,1.76882 9.48947,3.22074 1.08735,1.8415 -1.633,9.47637 -2.15284,12.09466 a 122.36712,122.36712 0 0 0 -3.08057,14.9826 0.84747989,0.84747989 0 0 0 1.5933,0.48291 c 2.14809,-3.86766 5.2342,-9.29963 7.4216,-13.07914 3.24339,-5.9689 8.6404,-13.24833 4.61588,-20.16161 z"
            id="path18" />
         <path id="rect937" d="m 189.78134,125.20023 h 28.507 v 1.058 h -28.507 z" />
      </g>
   </g>
</svg>