<?xml version="1.0" encoding="UTF-8" standalone="no"?>
<!-- Created with Inkscape (http://www.inkscape.org/) -->

<svg
   width="140.99048mm"
   height="100mm"
   viewBox="0 0 140.99048 100"
   version="1.1"
   id="svg5"
   inkscape:version="1.1.1 (3bf5ae0d25, 2021-09-20)"
   sodipodi:docname="winter_olympics_sports.svg"
   xmlns:inkscape="http://www.inkscape.org/namespaces/inkscape"
   xmlns:sodipodi="http://sodipodi.sourceforge.net/DTD/sodipodi-0.dtd"
   xmlns:xlink="http://www.w3.org/1999/xlink"
   xmlns="http://www.w3.org/2000/svg"
   xmlns:svg="http://www.w3.org/2000/svg">

   <g
      inkscape:label="Layer 1"
      inkscape:groupmode="layer"
      id="layer1"
      transform="translate(-379.72262,-191.69372)">
      <g
         id="skijump"
         transform="matrix(0.42313374,0,0,0.42314644,387.11505,178.00665)"
      >
         <defs
            id="defs3">
            <rect
               id="rect863"
               width="300"
               height="300"
               x="0"
               y="0" />
         </defs>
         <clipPath
            id="clipPath861">
            <use
               xlink:href="#SVGID_1_"
               overflow="visible"
               id="use859"
               x="0"
               y="0"
               width="100%"
               height="100%" />
         </clipPath>
         <g
            id="surface0"
            clip-path="url(#SVGID_2_)"
         >
            <path
               d="m 231.381,33.518 c 12.133,-4.462 26.53,4.748 27.827,17.545 2.351,12.363 -8.72,24.89 -21.215,24.392 -12.23,0.439 -22.813,-11.345 -21.558,-23.416 0.903,-8.402 6.899,-15.896 14.946,-18.521 z"
               id="path8-7"
            />
            <path
               d="m 231.381,33.518 c 12.133,-4.462 26.53,4.748 27.827,17.545 2.351,12.363 -8.72,24.89 -21.215,24.392 -12.23,0.439 -22.813,-11.345 -21.558,-23.416 0.903,-8.402 6.899,-15.896 14.946,-18.521 z"
               id="path10-0"
            />
            <path
               d="m 191.824,71.802 c 3.432,-3.648 8.313,-5.893 13.313,-6.141 5.77,0.016 11.121,6.406 8.623,11.969 -2.072,5.49 -6.672,9.437 -11.045,13.111 -6.418,4.941 -12.725,10.097 -19.779,14.124 -13.5,8.271 -26.625,17.185 -40.526,24.786 -2.21,1.266 -4.432,2.553 -6.88,3.307 10.784,-11.397 21.019,-23.286 31.236,-35.187 8.13,-8.87 16.851,-17.172 25.058,-25.969 z"
               id="path12-1"
            />
            <path
               d="m 191.824,71.802 c 3.432,-3.648 8.313,-5.893 13.313,-6.141 5.77,0.016 11.121,6.406 8.623,11.969 -2.072,5.49 -6.672,9.437 -11.045,13.111 -6.418,4.941 -12.725,10.097 -19.779,14.124 -13.5,8.271 -26.625,17.185 -40.526,24.786 -2.21,1.266 -4.432,2.553 -6.88,3.307 10.784,-11.397 21.019,-23.286 31.236,-35.187 8.13,-8.87 16.851,-17.172 25.058,-25.969 z"
               id="path14-2"
            />
            <path
               d="m 280.68,113.813 c 0.838,-1.957 3.136,-1.481 4.793,-1.188 1.846,3.875 0.289,8.453 -1.797,11.915 -3.541,3.902 -7.645,7.507 -12.529,9.613 -85.479,44.812 -170.938,89.666 -256.418,134.476 -1.025,-1.812 -1.957,-3.671 -2.751,-5.592 84.69,-44.271 169.212,-88.87 253.83,-133.282 4.172,-2.256 8.658,-4.257 11.963,-7.763 1.946,-2.314 2.25,-5.357 2.909,-8.179 z"
               id="path16"
            />
            <path
               d="m 280.68,113.813 c 0.838,-1.957 3.136,-1.481 4.793,-1.188 1.846,3.875 0.289,8.453 -1.797,11.915 -3.541,3.902 -7.645,7.507 -12.529,9.613 -85.479,44.812 -170.938,89.666 -256.418,134.476 -1.025,-1.812 -1.957,-3.671 -2.751,-5.592 84.69,-44.271 169.212,-88.87 253.83,-133.282 4.172,-2.256 8.658,-4.257 11.963,-7.763 1.946,-2.314 2.25,-5.357 2.909,-8.179 z"
               id="path18-3"
            />
            <path
               d="m 143.497,134.48 c 5.671,-5.869 12.204,-11.604 20.287,-13.677 5.672,-1.721 11.888,2.399 13.262,7.958 0.663,5.95 -3.624,10.814 -6.909,15.291 -10.832,11.481 -22.163,22.577 -34.665,32.245 -20.71,15.304 -40.558,31.754 -61.498,46.748 10.983,-14.987 22.327,-29.731 33.533,-44.562 11.967,-14.692 23.98,-29.348 35.99,-44.003 z"
               id="path20"
            />
            <path
               d="m 143.497,134.48 c 5.671,-5.869 12.204,-11.604 20.287,-13.677 5.672,-1.721 11.888,2.399 13.262,7.958 0.663,5.95 -3.624,10.814 -6.909,15.291 -10.832,11.481 -22.163,22.577 -34.665,32.245 -20.71,15.304 -40.558,31.754 -61.498,46.748 10.983,-14.987 22.327,-29.731 33.533,-44.562 11.967,-14.692 23.98,-29.348 35.99,-44.003 z"
               id="path22"
            />
         </g>
      </g>
      <g
         class="f"
         clip-path="url(#b)"
         id="bobsleigh"
         transform="matrix(0.49435633,0,0,0.49435633,379.72262,165.14679)"
      >
         <path
            class="e"
            d="m 255.1,173.3 c -5,-4.5 -18.8,-18.1 -43.4,-30.1 -10.2,10.6 -25.8,15.1 -40.7,10.3 L 0,97.9 v 60.7 c 0,0 160.6,52.1 160.6,52.1 v 0 c 0,0.1 80.5,26.1 80.5,26.1 5.4,1.8 29.8,10.5 40.6,-6.5 0.4,-0.6 1.9,-3.1 2.8,-6.5 4.9,-19 -17.1,-39.5 -29.3,-50.6 z"
            id="path9"
         />
         <circle
            class="e"
            cx="127.9"
            cy="106.1"
            r="21.5"
            id="circle11"
         />
         <circle
            class="e"
            cx="175.5"
            cy="121.6"
            r="21.5"
            id="circle13"
         />
         <circle
            class="e"
            cx="32.799999"
            cy="75.199997"
            r="21.5"
            id="circle15"
         />
         <circle
            class="e"
            cx="80.400002"
            cy="90.699997"
            r="21.5"
            id="circle17"
         />
         <path
            class="d"
            d="m 160.9,224.5 92.5,30 c 7.7,2.5 16,1.8 23.1,-1.8 v 0"
            id="path19"
         />
         <line
            class="d"
            x1="36.099998"
            y1="184"
            x2="-26.299999"
            y2="163.7"
            id="line21"
         />
      </g>
      <g
         id="curling"
         transform="matrix(1.8397683,0,0,1.8397683,-265.92695,-313.28735)"
      >
         <path
            d="m 419.01627,325.8216 c -1.26471,-0.10398 -2.64927,0.20426 -3.84598,-0.14208 -5.34379,-6.6794 -10.63308,-13.40591 -15.95808,-20.10119 -1.72614,-2.33177 -2.92285,-4.99771 -4.40902,-7.47977 -2.42279,-4.34128 -4.67413,-8.80216 -7.54644,-12.87118 -0.8935,-1.34303 -2.51725,-2.04841 -4.11216,-1.78991 -0.54477,0.42889 -1.1721,0.84852 -1.38588,1.54861 -0.3474,1.08982 -0.14499,2.30055 0.30136,3.33348 1.50786,3.37979 3.95684,6.22882 6.39365,8.97149 2.56699,2.80644 5.36417,5.38719 8.07138,8.05604 2.06481,1.84229 3.62241,4.14496 5.36866,6.27115 3.77614,4.72361 7.47289,9.51442 11.30433,14.19146 -1.44251,0.0214 -2.88502,0.0116 -4.32726,0.0103 -0.0196,0.88185 -0.0167,1.76424 -0.0124,2.64742 3.38958,10e-4 6.77889,0.002 10.16847,-2.7e-4 10e-4,-0.88238 0.004,-1.76424 -0.0106,-2.64557 z"
            id="path2-86"
         />
         <path
            d="m 390.75163,305.56775 c -3.09272,-2.49449 -6.39763,-4.79002 -10.03062,-6.42858 -0.81121,-0.36539 -1.67799,-0.64532 -2.57096,-0.69136 -0.86042,0.32967 -1.88356,0.65617 -2.26668,1.5875 -0.63474,1.33403 0.10345,2.81914 0.90884,3.89811 0.9996,0.87709 2.1934,1.4978 3.29407,2.23784 3.00487,1.91109 6.41958,3.125 9.23925,5.33321 2.5482,1.99919 5.00274,4.14205 7.14401,6.5786 2.29235,2.75617 3.96214,5.94889 5.88222,8.95906 0.39581,0.60748 0.65643,1.32344 1.2356,1.79334 l 0.0243,-0.43894 c -0.86889,-3.4253 -1.77562,-6.85244 -3.08107,-10.1436 -1.6346,-5.24695 -5.68404,-9.23422 -9.779,-12.68518 z"
            id="path4-3"
         />
         <path
            d="m 373.66643,299.86757 c -0.54928,-0.58182 -1.34541,-1.14803 -2.18705,-0.89562 -0.948,0.29554 -1.94336,0.77417 -2.43284,1.68778 -0.6313,1.14538 -0.60034,2.531 -0.28152,3.76661 0.75353,3.12975 2.62096,5.81475 4.32779,8.48942 0.59637,0.94774 1.26391,1.95289 1.2655,3.11626 0.037,0.50192 -0.45852,0.75512 -0.77946,1.04193 -3.68009,2.75669 -7.33134,5.55228 -10.90771,8.44232 -1.15967,0.85355 -2.23097,1.83542 -3.18268,2.91545 0.15902,0.0114 0.47731,0.0341 0.63659,0.0458 1.35361,-0.40852 2.65271,-0.98822 3.95764,-1.53141 4.78261,-1.75339 9.61019,-3.62929 13.75939,-6.64633 1.2954,-1.09961 1.47267,-2.92206 1.52929,-4.50956 -0.11959,-4.19999 -1.42637,-8.27881 -3.19987,-12.05627 -0.62653,-1.41076 -1.47505,-2.71806 -2.50507,-3.86635 z"
            id="path6-1"
         />
         <path
            d="m 390.74554,322.41112 c -0.36062,-0.98663 -0.82179,-2.1119 -1.91611,-2.46406 -1.7608,-0.58976 -3.66845,-0.4744 -5.49989,-0.45641 -0.45932,0.0855 -1.08876,0.0233 -1.32054,0.52335 -0.13626,0.36089 -0.0627,0.66807 0.22067,0.92128 0.67336,0.44741 1.48457,0.0556 2.2217,0.11589 1.21656,0.0386 2.46618,0.05 3.6404,0.40798 0.41037,0.0624 0.65908,0.39344 0.84879,0.73369 -1.9439,0.032 -3.88806,-0.009 -5.83168,0.0177 -1.23905,0.0336 -2.72363,0.51911 -3.11098,1.83621 -0.2995,1.31551 -0.38973,3.00567 0.71094,3.98806 0.56647,0.54796 1.39144,0.68422 2.14974,0.71041 2.21615,0 4.43256,-0.008 6.64898,0.004 0.64479,-0.006 1.32477,-0.0802 1.88859,-0.41751 2.10424,-1.31736 1.68302,-5.06809 -0.65061,-5.92032 z"
            id="path8-5"
         />
         <circle
            cx="393.82425"
            cy="280.1958"
            r="5.7150002"
            id="circle10"
         />
      </g>
   </g>
</svg>